<svg width="37" height="25" viewBox="0 0 37 25" fill="none" xmlns="http://www.w3.org/2000/svg">
<g clip-path="url(#clip0_1_1115)">
<rect width="37" height="25" rx="7" fill="#333333"/>
<g opacity="0.7" filter="url(#filter0_f_1_1115)">
<ellipse cx="26" cy="6.5" rx="8" ry="8.5" fill="#37FF9F"/>
</g>
<g opacity="0.7" filter="url(#filter1_f_1_1115)">
<circle cx="16" cy="21" r="6" fill="#50A0FF"/>
</g>
<rect opacity="0.12" x="26" y="4.01923" width="7" height="4.57692" rx="1.61538" fill="white"/>
<path d="M27.0769 5.5H28.9615" stroke="white" stroke-width="0.3" stroke-linecap="round"/>
<path d="M27.0769 6.98077H28.9615" stroke="white" stroke-width="0.3" stroke-linecap="round"/>
<path d="M30.3077 6.98077H32.1924" stroke="white" stroke-width="0.3" stroke-linecap="round"/>
<path d="M30.3077 5.36539H32.1924" stroke="white" stroke-width="0.3" stroke-linecap="round"/>
<path d="M29.0117 5.42979L29.4319 4.84144C29.5345 4.69793 29.745 4.69009 29.8579 4.82557L30.2453 5.2905C30.2856 5.33889 30.3077 5.39988 30.3077 5.46286V6.90356C30.3077 6.95402 30.2935 7.00346 30.2668 7.04625L29.848 7.71629C29.7464 7.87892 29.5121 7.88615 29.4006 7.73008L29.0117 7.18559C28.9791 7.13993 28.9615 7.08522 28.9615 7.02911V5.58628C28.9615 5.53017 28.9791 5.47545 29.0117 5.42979Z" stroke="white" stroke-width="0.3"/>
</g>
<defs>
<filter id="filter0_f_1_1115" x="0" y="-20" width="52" height="53" filterUnits="userSpaceOnUse" color-interpolation-filters="sRGB">
<feFlood flood-opacity="0" result="BackgroundImageFix"/>
<feBlend mode="normal" in="SourceGraphic" in2="BackgroundImageFix" result="shape"/>
<feGaussianBlur stdDeviation="9" result="effect1_foregroundBlur_1_1115"/>
</filter>
<filter id="filter1_f_1_1115" x="-8" y="-3" width="48" height="48" filterUnits="userSpaceOnUse" color-interpolation-filters="sRGB">
<feFlood flood-opacity="0" result="BackgroundImageFix"/>
<feBlend mode="normal" in="SourceGraphic" in2="BackgroundImageFix" result="shape"/>
<feGaussianBlur stdDeviation="9" result="effect1_foregroundBlur_1_1115"/>
</filter>
<clipPath id="clip0_1_1115">
<rect width="37" height="25" rx="7" fill="white"/>
</clipPath>
</defs>
</svg>
